<svg width="718" height="181" viewBox="0 0 718 181" fill="none" xmlns="http://www.w3.org/2000/svg">
<g clip-path="url(#clip0_120_12)">
<path d="M44.7296 52.309L54.3452 84.3535M96.6314 126.655L128.691 136.27" stroke="black" stroke-width="4" stroke-linecap="round" stroke-linejoin="round"/>
<path d="M88.1093 92.8907L131.542 49.4583" stroke="black" stroke-width="4" stroke-linecap="round" stroke-linejoin="round"/>
<path d="M30.1666 41.4791C30.1666 42.9647 30.4592 44.4357 31.0277 45.8082C31.5962 47.1807 32.4295 48.4278 33.48 49.4783C34.5304 50.5287 35.7775 51.362 37.15 51.9305C38.5225 52.499 39.9935 52.7916 41.4791 52.7916C42.9647 52.7916 44.4357 52.499 45.8082 51.9305C47.1807 51.362 48.4278 50.5287 49.4783 49.4783C50.5287 48.4278 51.362 47.1807 51.9305 45.8082C52.499 44.4357 52.7916 42.9647 52.7916 41.4791C52.7916 39.9935 52.499 38.5225 51.9305 37.15C51.362 35.7775 50.5287 34.5304 49.4783 33.48C48.4278 32.4295 47.1807 31.5962 45.8082 31.0277C44.4357 30.4592 42.9647 30.1666 41.4791 30.1666C39.9935 30.1666 38.5225 30.4592 37.15 31.0277C35.7775 31.5962 34.5304 32.4295 33.48 33.48C32.4295 34.5304 31.5962 35.7775 31.0277 37.15C30.4592 38.5225 30.1666 39.9935 30.1666 41.4791Z" stroke="black" stroke-width="8" stroke-linecap="round" stroke-linejoin="round"/>
<path d="M128.208 41.4791C128.208 44.4794 129.4 47.3568 131.522 49.4783C133.643 51.5998 136.521 52.7916 139.521 52.7916C142.521 52.7916 145.399 51.5998 147.52 49.4783C149.642 47.3568 150.833 44.4794 150.833 41.4791C150.833 38.4789 149.642 35.6015 147.52 33.48C145.399 31.3585 142.521 30.1666 139.521 30.1666C136.521 30.1666 133.643 31.3585 131.522 33.48C129.4 35.6015 128.208 38.4789 128.208 41.4791Z" stroke="black" stroke-width="8" stroke-linecap="round" stroke-linejoin="round"/>
<path d="M128.208 139.521C128.208 142.521 129.4 145.399 131.522 147.52C133.643 149.642 136.521 150.833 139.521 150.833C142.521 150.833 145.399 149.642 147.52 147.52C149.642 145.399 150.833 142.521 150.833 139.521C150.833 136.521 149.642 133.643 147.52 131.522C145.399 129.4 142.521 128.208 139.521 128.208C136.521 128.208 133.643 129.4 131.522 131.522C129.4 133.643 128.208 136.521 128.208 139.521Z" stroke="black" stroke-width="8" stroke-linecap="round" stroke-linejoin="round"/>
<path d="M30.1666 116.896C30.1666 125.897 33.7422 134.529 40.1067 140.893C46.4712 147.258 55.1033 150.833 64.1041 150.833C73.1049 150.833 81.737 147.258 88.1016 140.893C94.4661 134.529 98.0416 125.897 98.0416 116.896C98.0416 107.895 94.4661 99.263 88.1016 92.8984C81.737 86.5339 73.1049 82.9584 64.1041 82.9584C55.1033 82.9584 46.4712 86.5339 40.1067 92.8984C33.7422 99.263 30.1666 107.895 30.1666 116.896Z" stroke="black" stroke-width="8" stroke-linecap="round" stroke-linejoin="round"/>
</g>
<path d="M303 121.1C297.067 121.1 294.1 120.433 294.1 119.1L292 79L279.8 119.6C279.533 120.4 277.267 120.8 273 120.8C268.733 120.8 266.533 120.433 266.4 119.7L253.8 78.6L252.4 118.5C252.333 119.5 251.067 120.2 248.6 120.6C246.133 120.933 244.067 121.1 242.4 121.1C240.8 121.1 239.233 121 237.7 120.8C234.5 120.333 232.933 119.5 233 118.3L235.3 53.3C235.3 51.7 239.367 50.9 247.5 50.9C249.9 50.9 252.833 51.1 256.3 51.5C259.767 51.8333 261.7 52.5333 262.1 53.6L273.3 85.1L283.1 53.5C283.7 51.7667 288.3 50.9 296.9 50.9C299.367 50.9 302.3 51.1 305.7 51.5C309.167 51.8333 310.9 52.4667 310.9 53.4L313.8 119C313.8 119.733 312.5 120.267 309.9 120.6C307.3 120.933 305 121.1 303 121.1ZM341.523 120.4C341.523 120.933 338.456 121.2 332.323 121.2C326.256 121.2 323.223 120.967 323.223 120.5V71.4C323.223 70.9333 326.256 70.7 332.323 70.7C338.456 70.7 341.523 70.9 341.523 71.3V120.4ZM341.523 65.4C341.523 65.8667 338.456 66.1 332.323 66.1C326.256 66.1 323.223 65.9 323.223 65.5V51.1C323.223 50.4333 326.256 50.1 332.323 50.1C338.456 50.1 341.523 50.3 341.523 50.7V65.4ZM371.466 120.4C371.466 120.867 369.066 121.1 364.266 121.1C357.6 120.9 354.266 120.533 354.266 120V87.6H351.666C349.933 87.6 348.8 86.1333 348.266 83.2C348.133 82.3333 348.066 81.4667 348.066 80.6C348.066 78.5333 348.466 76.4667 349.266 74.4C350.466 71.4667 352.333 70 354.866 70C357.4 70 359.666 70.6 361.666 71.8C363.666 73 365 74.2 365.666 75.4C369.866 71.8 374.866 70 380.666 70C386.466 70 390.666 71.5667 393.266 74.7C395.866 77.8333 397.166 82.9667 397.166 90.1V120.1C397.166 120.9 394.3 121.3 388.566 121.3C382.9 121.3 380.066 120.9 380.066 120.1V91.2C380.066 87.8667 378.9 86.2 376.566 86.2C375.9 86.2 374.966 86.5 373.766 87.1C372.566 87.6333 371.8 88.0333 371.466 88.3V120.4ZM430.945 51.6C430.945 50.6 433.578 50.1 438.845 50.1C440.645 50.1 442.711 50.2333 445.045 50.5C447.445 50.7 448.645 51 448.645 51.4V104.1H452.145C453.811 104.1 454.911 105.6 455.445 108.6C455.578 109.467 455.645 110.667 455.645 112.2C455.645 113.667 455.178 115.467 454.245 117.6C452.911 120.533 450.778 122 447.845 122C445.645 122 443.678 121.567 441.945 120.7C440.278 119.833 439.145 118.933 438.545 118L437.645 116.7C433.978 120.233 429.378 122 423.845 122C418.311 122 413.578 119.7 409.645 115.1C405.711 110.5 403.745 104.1 403.745 95.9C403.745 87.6333 405.811 81.2667 409.945 76.8C414.078 72.2667 419.245 70 425.445 70C427.245 70 429.078 70.2 430.945 70.6V51.6ZM427.645 86C423.911 86 422.045 89.3667 422.045 96.1C422.045 99.5 422.578 101.967 423.645 103.5C424.711 104.967 425.878 105.7 427.145 105.7C428.478 105.7 429.745 105.133 430.945 104V87C429.811 86.3333 428.711 86 427.645 86ZM466.088 84.3H461.188C460.188 84.3 459.688 82.1 459.688 77.7C459.688 73.2333 460.188 71 461.188 71H466.088V68.8C466.088 61.7333 467.554 56.8667 470.488 54.2C473.488 51.4667 477.654 50.1 482.988 50.1C488.321 50.1 493.021 51.0667 497.088 53C497.621 53.2 497.888 53.9333 497.888 55.2C497.888 56.4 497.321 58.3667 496.188 61.1C495.054 63.8333 494.088 65.4 493.288 65.8C491.021 64.4 488.688 63.7 486.288 63.7C483.688 63.7 482.388 65.4333 482.388 68.9V71H490.688C491.888 71 492.488 73.1333 492.488 77.4C492.488 82.0667 491.721 84.4 490.188 84.4H483.788V119.8C483.788 120.6 480.821 121 474.888 121C469.021 121 466.088 120.6 466.088 119.8V84.3ZM496.648 71.6C496.648 70.8667 499.515 70.5 505.248 70.5C510.982 70.5 513.848 70.8667 513.848 71.6V100.8C513.848 104.133 514.915 105.8 517.048 105.8C518.648 105.8 520.448 105.1 522.448 103.7V71.6C522.448 70.9333 525.282 70.6 530.948 70.6C536.615 70.6 539.448 70.9333 539.448 71.6V104.4H542.048C544.315 104.4 545.448 106.567 545.448 110.9C545.448 113.1 544.982 115.333 544.048 117.6C542.715 120.533 540.915 122 538.648 122C534.182 122 530.882 120.167 528.748 116.5L528.648 116.6C524.582 120.2 520.215 122 515.548 122C509.082 122 504.315 120.4 501.248 117.2C498.182 113.933 496.648 108.567 496.648 101.1V71.6ZM569.743 120.2C569.743 120.8 566.343 121.1 559.543 121.1C554.21 121.033 551.543 120.767 551.543 120.3V52.2C551.543 51.2 554.776 50.7 561.243 50.7C566.91 50.9 569.743 51.2333 569.743 51.7V120.2Z" fill="black"/>
<path d="M671.115 49.8086L666.623 121.488L644.357 122.465L644.553 84.6719L634.494 115.141H625.9L618.186 87.8945L618.088 119.535L595.529 120.219L596.506 52.7383L621.604 51.7617L631.564 84.0859L644.846 49.8086H671.115ZM717.648 93.168L715.598 114.848L674.484 118.07C674.68 106.71 674.891 95.4141 675.119 84.1836C675.38 72.9531 675.689 61.6576 676.047 50.2969H701.438C700.689 57.4258 699.973 64.5547 699.289 71.6836C698.605 78.7799 698.117 85.9414 697.824 93.168C699.354 93.2331 700.868 93.2656 702.365 93.2656C703.863 93.2656 705.376 93.2656 706.906 93.2656C708.729 93.2656 710.52 93.2493 712.277 93.2168C714.035 93.1842 715.826 93.168 717.648 93.168Z" fill="black" fill-opacity="0.72"/>
<defs>
<clipPath id="clip0_120_12">
<rect width="181" height="181" fill="white"/>
</clipPath>
</defs>
</svg>
